<svg xmlns="http://www.w3.org/2000/svg" width="32" height="32" viewBox="0 0 32 32" fill="none">
    <path class="gf-wing gf-wing-left" d="M12.8 11.2C10.4 12 7.2 14.4 6 16.8" stroke="currentColor" stroke-width="1.6" stroke-linecap="round" stroke-linejoin="round"/>
    <path class="gf-wing gf-wing-right" d="M19.2 11.2C21.6 12 24.8 14.4 26 16.8" stroke="currentColor" stroke-width="1.6" stroke-linecap="round" stroke-linejoin="round"/>
    <path class="gf-body" d="M16 4C19.2 4 21.6 6.4 22.4 8.8C23.2 11.2 23.2 13.6 22.4 16C21.6 18.4 19.2 20.8 16 22.4C12.8 20.8 10.4 18.4 9.6 16C8.8 13.6 8.8 11.2 9.6 8.8C10.4 6.4 12.8 4 16 4Z" stroke="currentColor" stroke-width="1.6" stroke-linecap="round" stroke-linejoin="round"/>
    <path class="gf-head" d="M16 4.8C14.8 4.8 13.6 5.6 12.8 6.4M16 4.8C17.2 4.8 18.4 5.6 19.2 6.4" stroke="currentColor" stroke-width="1.6" stroke-linecap="round" stroke-linejoin="round"/>
    <path class="gf-beak" d="M16 8.8L15.2 11.2L16 12.8L16.8 11.2L16 8.8Z" fill="currentColor"/>
    <path class="gf-tail" d="M16 22.4V28M14.4 22.4L13.6 26.4M17.6 22.4L18.4 26.4" stroke="currentColor" stroke-width="1.6" stroke-linecap="round" stroke-linejoin="round"/>
</svg>
