<?xml version="1.0" encoding="UTF-8"?> <svg xmlns="http://www.w3.org/2000/svg" xmlns:xlink="http://www.w3.org/1999/xlink" version="1.1" id="Layer_1" x="0px" y="0px" viewBox="0 0 1000 280" style="enable-background:new 0 0 1000 280;" xml:space="preserve"> <style type="text/css"> .st0{fill:#D22630;} .st1{fill:#FFFFFF;} </style> <g> <path class="st0" d="M140,0C62.68,0,0,62.68,0,140s62.68,140,140,140s140-62.68,140-140S217.32,0,140,0 M77.95,176.29H48.81v-72.57 H77.6c17.97,0,28.08,7.38,28.08,20.34c0,6.9-4.17,11.66-10.95,13.92c10.47,2.61,15.7,8.8,15.7,17.61 C110.43,168.79,98.77,176.29,77.95,176.29 M144.39,176.29H125v-72.57h19.39V176.29z M217.14,176.29l-4.05-11.54h-30.93l-4.05,11.54 H157.3l27.12-72.57h26.41l27,72.57H217.14z"></path> <path class="st0" d="M79.86,146.54H68.2v13.68h10.35c7.49,0,11.78-2.62,11.78-7.14C90.32,148.92,86.52,146.54,79.86,146.54"></path> <path class="st0" d="M87.35,125.84c0-3.92-3.57-6.06-9.75-6.06h-9.4v11.78h11.65C84.62,131.55,87.35,129.53,87.35,125.84"></path> <path class="st0" d="M197.62,119.65c-0.59,1.9-1.31,4.05-2.14,6.66l-7.26,20.82h18.68l-7.26-20.82 C198.82,123.7,198.1,121.56,197.62,119.65"></path> <polygon class="st1" points="364.08,103.72 299.84,103.72 299.84,121.33 322.21,121.33 322.21,176.29 341.6,176.29 341.6,121.33 364.08,121.33 "></polygon> <path class="st1" d="M417.72,145.36c-0.12-18.2-10.59-27.6-26.77-27.6c-17.97,0-29.14,10.23-29.14,30.21 c0,19.51,11.41,29.38,29.02,29.38c9.64,0,17.85-2.73,26.54-9.28l-5.36-10.71c-7.14,3.81-12.61,5.24-20.34,5.24 c-6.42,0-10.23-3.09-11.54-9.52h37.12C417.6,150.11,417.72,147.74,417.72,145.36 M380.01,141.79c1.07-7.37,4.64-10.83,10.94-10.83 c6.19,0,10,3.33,10.47,10.83H380.01z"></path> <path class="st1" d="M524.51,117.76c-7.13,0-12.85,3.09-18.92,9.87V99.55h-19.03v76.73h19.03v-32.95c3.22-4.05,6.91-6.66,11.3-6.66 c5.47,0,6.66,2.61,6.66,9.63v29.98h19.03v-36.52C542.59,124.3,536.77,117.76,524.51,117.76"></path> <path class="st1" d="M455.53,162.25c-7.5,0-11.66-5.23-11.66-14.39c0-9.63,4.29-14.99,11.78-14.99c4.52,0,9.28,0.48,15.7,3.22 l5.24-12.02c-8.09-4.76-15.59-6.31-23.56-6.31c-16.18,0-27.84,10.11-27.84,30.1c0,19.51,12.37,29.5,27.6,29.5 c10.95,0,18.09-2.61,25.82-8.68l-5.59-10.83C467.07,160.94,461,162.25,455.53,162.25"></path> <path class="st1" d="M592.9,117.76c-7.02,0-12.85,3.09-18.92,8.56v-7.49h-19.03v57.46h19.03v-34.26c3.22-4.05,6.9-6.54,11.3-6.54 c5.47,0,6.66,2.61,6.66,9.63v31.17h19.03v-36.52C610.98,124.3,605.15,117.76,592.9,117.76"></path> <rect x="858.82" y="118.82" class="st1" width="19.03" height="57.46"></rect> <path class="st1" d="M868.34,92.42c-5.59,0-10.7,3.21-10.7,9.63c0,6.55,5.12,9.76,10.7,9.76c5.59,0,10.7-3.21,10.7-9.76 C879.04,95.63,873.93,92.42,868.34,92.42"></path> <path class="st1" d="M918.05,162.61c-6.43,0-10.24-3.1-11.54-9.52h37.12c0.36-2.97,0.48-5.35,0.48-7.73 c-0.12-18.2-10.59-27.6-26.77-27.6c-17.97,0-29.15,10.23-29.15,30.21c0,19.51,11.42,29.38,29.03,29.38 c9.63,0,17.84-2.73,26.53-9.28l-5.35-10.71C931.25,161.18,925.78,162.61,918.05,162.61 M917.34,130.96c6.18,0,10,3.33,10.47,10.83 h-21.41C907.46,134.41,911.03,130.96,917.34,130.96"></path> <path class="st1" d="M826.96,125.25c-5.59-4.76-11.19-7.49-18.2-7.49c-14.04,0-21.65,8.68-21.65,28.43 c0,18.56,8.68,27.6,22.01,27.6c8.92,0,13.08-2.02,17.84-7.85v0.36c0,12.26-4.17,16.3-12.73,16.3c-5.59,0-13.69-1.78-20.23-3.45 l-2.5,12.96c6.55,2.98,16.77,4.88,25.34,4.88c19.15,0,29.15-8.8,29.15-30.7v-47.46h-19.03V125.25z M826.96,152.85 c-2.86,4.17-5.59,6.31-10.83,6.31c-6.31,0-10.35-3.21-10.35-12.97c0-9.4,3.34-12.61,9.75-12.61c4.64,0,8.21,2.26,11.42,6.54V152.85 z"></path> <path class="st1" d="M749.17,117.76c-18.8,0-29.86,10.83-29.86,30.1c0,18.8,11.07,29.5,29.86,29.5c18.92,0,29.98-10.7,29.98-29.5 C779.15,128.58,768.08,117.76,749.17,117.76 M749.17,162.25c-7.25,0-11.18-3.81-11.18-14.39c0-11.07,4.05-14.99,11.18-14.99 c7.26,0,11.3,3.93,11.3,14.99C760.47,158.44,756.43,162.25,749.17,162.25"></path> <path class="st1" d="M650.23,117.76c-18.8,0-29.86,10.83-29.86,30.1c0,18.8,11.07,29.5,29.86,29.5c18.92,0,29.98-10.7,29.98-29.5 C680.2,128.58,669.14,117.76,650.23,117.76 M650.23,162.25c-7.26,0-11.19-3.81-11.19-14.39c0-11.07,4.04-14.99,11.19-14.99 c7.25,0,11.3,3.93,11.3,14.99C661.53,158.44,657.48,162.25,650.23,162.25"></path> <rect x="690.54" y="99.55" class="st1" width="19.03" height="76.73"></rect> <path class="st0" d="M984.53,141.67c-9.28-2.61-14.28-3.09-14.28-6.66c0-2.14,1.55-3.21,4.04-3.21c3.81,0,11.54,1.19,19.99,3.44 l4.64-13.08c-10.46-3.45-19.15-4.52-25.93-4.52c-13.21,0-20.58,7.49-20.58,19.63c0,8.09,5,13.57,15.7,16.9 c8.68,2.74,12.85,3.21,12.85,6.19c0,1.9-1.55,2.85-4.76,2.85c-5.23,0-14.04-2.61-21.42-5.35l-4.52,12.73 c7.37,3.69,15.47,6.79,25.7,6.79c15.7,0,24.03-6.66,24.03-19.04C1000,148.45,995.71,144.76,984.53,141.67"></path> </g> </svg> 